<mxfile host="app.diagrams.net" modified="2023-05-25T15:05:36.913Z" agent="Mozilla/5.0 (Windows NT 10.0; Win64; x64) AppleWebKit/537.36 (KHTML, like Gecko) Chrome/113.0.0.0 Safari/537.36" etag="oMX0Q3laC01y--0n6xqE" version="21.3.3" type="device">
  <diagram id="prtHgNgQTEPvFCAcTncT" name="Page-1">
    <mxGraphModel dx="1147" dy="726" grid="0" gridSize="10" guides="1" tooltips="1" connect="1" arrows="1" fold="1" page="1" pageScale="1" pageWidth="827" pageHeight="1169" math="0" shadow="0">
      <root>
        <mxCell id="0" />
        <mxCell id="1" parent="0" />
        <mxCell id="bZxxxiBaWoAHhsd1G-LK-1" value="Visiteur" style="shape=umlLifeline;perimeter=lifelinePerimeter;whiteSpace=wrap;html=1;container=1;dropTarget=0;collapsible=0;recursiveResize=0;outlineConnect=0;portConstraint=eastwest;newEdgeStyle={&quot;edgeStyle&quot;:&quot;elbowEdgeStyle&quot;,&quot;elbow&quot;:&quot;vertical&quot;,&quot;curved&quot;:0,&quot;rounded&quot;:0};size=40;rounded=1;fillColor=#7EA6E0;" vertex="1" parent="1">
          <mxGeometry x="69" y="40" width="120" height="470" as="geometry" />
        </mxCell>
        <mxCell id="bZxxxiBaWoAHhsd1G-LK-2" value="Front-end&lt;br&gt;(ReactJs)" style="shape=umlLifeline;perimeter=lifelinePerimeter;whiteSpace=wrap;html=1;container=1;dropTarget=0;collapsible=0;recursiveResize=0;outlineConnect=0;portConstraint=eastwest;newEdgeStyle={&quot;edgeStyle&quot;:&quot;elbowEdgeStyle&quot;,&quot;elbow&quot;:&quot;vertical&quot;,&quot;curved&quot;:0,&quot;rounded&quot;:0};size=40;rounded=1;fillColor=#CCFFFF;" vertex="1" parent="1">
          <mxGeometry x="229" y="40" width="120" height="470" as="geometry" />
        </mxCell>
        <mxCell id="bZxxxiBaWoAHhsd1G-LK-3" value="" style="html=1;points=[];perimeter=orthogonalPerimeter;outlineConnect=0;targetShapes=umlLifeline;portConstraint=eastwest;newEdgeStyle={&quot;edgeStyle&quot;:&quot;elbowEdgeStyle&quot;,&quot;elbow&quot;:&quot;vertical&quot;,&quot;curved&quot;:0,&quot;rounded&quot;:0};fillColor=#CCFFFF;rounded=1;" vertex="1" parent="bZxxxiBaWoAHhsd1G-LK-2">
          <mxGeometry x="55" y="50" width="10" height="370" as="geometry" />
        </mxCell>
        <mxCell id="bZxxxiBaWoAHhsd1G-LK-39" value="" style="html=1;points=[];perimeter=orthogonalPerimeter;outlineConnect=0;targetShapes=umlLifeline;portConstraint=eastwest;newEdgeStyle={&quot;edgeStyle&quot;:&quot;elbowEdgeStyle&quot;,&quot;elbow&quot;:&quot;vertical&quot;,&quot;curved&quot;:0,&quot;rounded&quot;:0};fillColor=#99FFFF;rounded=1;" vertex="1" parent="bZxxxiBaWoAHhsd1G-LK-2">
          <mxGeometry x="65" y="100" width="10" height="180" as="geometry" />
        </mxCell>
        <mxCell id="bZxxxiBaWoAHhsd1G-LK-40" value="2: verification data" style="html=1;align=left;spacingLeft=2;endArrow=block;rounded=1;edgeStyle=orthogonalEdgeStyle;curved=0;rounded=0;" edge="1" parent="bZxxxiBaWoAHhsd1G-LK-2" target="bZxxxiBaWoAHhsd1G-LK-39" source="bZxxxiBaWoAHhsd1G-LK-3">
          <mxGeometry relative="1" as="geometry">
            <mxPoint x="70" y="80" as="sourcePoint" />
            <Array as="points">
              <mxPoint x="100" y="80" />
              <mxPoint x="100" y="110" />
            </Array>
          </mxGeometry>
        </mxCell>
        <mxCell id="bZxxxiBaWoAHhsd1G-LK-6" value="Back-end&lt;br&gt;(Api rest)" style="shape=umlLifeline;perimeter=lifelinePerimeter;whiteSpace=wrap;html=1;container=1;dropTarget=0;collapsible=0;recursiveResize=0;outlineConnect=0;portConstraint=eastwest;newEdgeStyle={&quot;edgeStyle&quot;:&quot;elbowEdgeStyle&quot;,&quot;elbow&quot;:&quot;vertical&quot;,&quot;curved&quot;:0,&quot;rounded&quot;:0};size=40;rounded=1;fillColor=#FFFFCC;" vertex="1" parent="1">
          <mxGeometry x="389" y="40" width="120" height="470" as="geometry" />
        </mxCell>
        <mxCell id="bZxxxiBaWoAHhsd1G-LK-65" value="13: hashage du password&lt;br&gt;+ crÃ©ation d&#39;un jwt avec&amp;nbsp;&lt;br&gt;toutes les informations" style="html=1;align=left;spacingLeft=2;endArrow=block;rounded=0;edgeStyle=orthogonalEdgeStyle;curved=0;rounded=0;" edge="1" target="bZxxxiBaWoAHhsd1G-LK-7" parent="bZxxxiBaWoAHhsd1G-LK-6">
          <mxGeometry x="-0.1111" relative="1" as="geometry">
            <mxPoint x="65" y="390" as="sourcePoint" />
            <Array as="points">
              <mxPoint x="95" y="390" />
              <mxPoint x="95" y="420" />
            </Array>
            <mxPoint x="70" y="420" as="targetPoint" />
            <mxPoint as="offset" />
          </mxGeometry>
        </mxCell>
        <mxCell id="bZxxxiBaWoAHhsd1G-LK-8" value="Database&lt;br&gt;(MySQL)" style="shape=umlLifeline;perimeter=lifelinePerimeter;whiteSpace=wrap;html=1;container=1;dropTarget=0;collapsible=0;recursiveResize=0;outlineConnect=0;portConstraint=eastwest;newEdgeStyle={&quot;edgeStyle&quot;:&quot;elbowEdgeStyle&quot;,&quot;elbow&quot;:&quot;vertical&quot;,&quot;curved&quot;:0,&quot;rounded&quot;:0};size=40;rounded=1;fillColor=#FFCCE6;" vertex="1" parent="1">
          <mxGeometry x="549" y="40" width="120" height="470" as="geometry" />
        </mxCell>
        <mxCell id="bZxxxiBaWoAHhsd1G-LK-9" value="" style="html=1;points=[];perimeter=orthogonalPerimeter;outlineConnect=0;targetShapes=umlLifeline;portConstraint=eastwest;newEdgeStyle={&quot;edgeStyle&quot;:&quot;elbowEdgeStyle&quot;,&quot;elbow&quot;:&quot;vertical&quot;,&quot;curved&quot;:0,&quot;rounded&quot;:0};fillColor=#FFCCE6;rounded=0;arcSize=50;" vertex="1" parent="bZxxxiBaWoAHhsd1G-LK-8">
          <mxGeometry x="55" y="190" width="10" height="140" as="geometry" />
        </mxCell>
        <mxCell id="bZxxxiBaWoAHhsd1G-LK-10" value="1: Saisie du formulaire&lt;br&gt;nom prenom etc..." style="html=1;verticalAlign=bottom;startArrow=oval;endArrow=block;startSize=8;edgeStyle=elbowEdgeStyle;elbow=vertical;curved=0;rounded=1;" edge="1" parent="1" target="bZxxxiBaWoAHhsd1G-LK-3">
          <mxGeometry x="0.0327" relative="1" as="geometry">
            <mxPoint x="129" y="120" as="sourcePoint" />
            <mxPoint as="offset" />
          </mxGeometry>
        </mxCell>
        <mxCell id="bZxxxiBaWoAHhsd1G-LK-41" value="data pas valide/present" style="shape=umlFrame;whiteSpace=wrap;html=1;pointerEvents=0;width=90;height=30;rounded=1;fillColor=#FF9999;" vertex="1" parent="1">
          <mxGeometry x="19" y="140" width="670" height="70" as="geometry" />
        </mxCell>
        <mxCell id="bZxxxiBaWoAHhsd1G-LK-42" value="data valide" style="shape=umlFrame;whiteSpace=wrap;html=1;pointerEvents=0;width=90;height=30;rounded=1;fillColor=#99FF99;shadow=0;" vertex="1" parent="1">
          <mxGeometry x="19" y="210" width="670" height="300" as="geometry" />
        </mxCell>
        <mxCell id="bZxxxiBaWoAHhsd1G-LK-43" value="" style="html=1;verticalAlign=bottom;endArrow=open;dashed=1;endSize=8;edgeStyle=elbowEdgeStyle;elbow=vertical;curved=0;rounded=1;" edge="1" parent="1" target="bZxxxiBaWoAHhsd1G-LK-44" source="bZxxxiBaWoAHhsd1G-LK-3">
          <mxGeometry relative="1" as="geometry">
            <mxPoint x="279" y="200" as="sourcePoint" />
            <mxPoint x="129" y="200" as="targetPoint" />
            <Array as="points">
              <mxPoint x="199" y="190" />
              <mxPoint x="259" y="200" />
            </Array>
          </mxGeometry>
        </mxCell>
        <mxCell id="bZxxxiBaWoAHhsd1G-LK-45" value="3: Message d&#39;erreur :&lt;br&gt;erreur de saisie" style="edgeLabel;html=1;align=center;verticalAlign=middle;resizable=0;points=[];" vertex="1" connectable="0" parent="bZxxxiBaWoAHhsd1G-LK-43">
          <mxGeometry x="0.1063" relative="1" as="geometry">
            <mxPoint x="5" y="-20" as="offset" />
          </mxGeometry>
        </mxCell>
        <mxCell id="bZxxxiBaWoAHhsd1G-LK-44" value="" style="ellipse;html=1;shape=endState;fillColor=#000000;strokeColor=#ff0000;rounded=1;" vertex="1" parent="1">
          <mxGeometry x="119" y="180" width="20" height="20" as="geometry" />
        </mxCell>
        <mxCell id="bZxxxiBaWoAHhsd1G-LK-7" value="" style="html=1;points=[];perimeter=orthogonalPerimeter;outlineConnect=0;targetShapes=umlLifeline;portConstraint=eastwest;newEdgeStyle={&quot;edgeStyle&quot;:&quot;elbowEdgeStyle&quot;,&quot;elbow&quot;:&quot;vertical&quot;,&quot;curved&quot;:0,&quot;rounded&quot;:0};fillColor=#FFFFCC;rounded=0;glass=0;" vertex="1" parent="1">
          <mxGeometry x="444" y="215" width="10" height="285" as="geometry" />
        </mxCell>
        <mxCell id="bZxxxiBaWoAHhsd1G-LK-46" value="pseudo non disponible" style="shape=umlFrame;whiteSpace=wrap;html=1;pointerEvents=0;width=90;height=30;rounded=1;fillColor=#FF9999;" vertex="1" parent="1">
          <mxGeometry x="29" y="265" width="660" height="70" as="geometry" />
        </mxCell>
        <mxCell id="bZxxxiBaWoAHhsd1G-LK-48" value="pseudo disponible" style="shape=umlFrame;whiteSpace=wrap;html=1;pointerEvents=0;width=90;height=30;rounded=1;fillColor=#99FF99;" vertex="1" parent="1">
          <mxGeometry x="29" y="335" width="660" height="70" as="geometry" />
        </mxCell>
        <mxCell id="bZxxxiBaWoAHhsd1G-LK-51" value="4: envoi du pseudo" style="html=1;verticalAlign=bottom;startArrow=oval;startFill=1;endArrow=block;startSize=8;edgeStyle=elbowEdgeStyle;elbow=vertical;curved=0;rounded=0;" edge="1" parent="1" source="bZxxxiBaWoAHhsd1G-LK-39" target="bZxxxiBaWoAHhsd1G-LK-7">
          <mxGeometry width="60" relative="1" as="geometry">
            <mxPoint x="309" y="230" as="sourcePoint" />
            <mxPoint x="369" y="230" as="targetPoint" />
            <Array as="points">
              <mxPoint x="369" y="230" />
            </Array>
          </mxGeometry>
        </mxCell>
        <mxCell id="bZxxxiBaWoAHhsd1G-LK-52" value="5: interroge database" style="html=1;verticalAlign=bottom;startArrow=oval;startFill=1;endArrow=block;startSize=8;edgeStyle=elbowEdgeStyle;elbow=vertical;curved=0;rounded=0;" edge="1" parent="1" source="bZxxxiBaWoAHhsd1G-LK-7" target="bZxxxiBaWoAHhsd1G-LK-9">
          <mxGeometry width="60" relative="1" as="geometry">
            <mxPoint x="459" y="250" as="sourcePoint" />
            <mxPoint x="519" y="250" as="targetPoint" />
            <Array as="points">
              <mxPoint x="509" y="240" />
            </Array>
          </mxGeometry>
        </mxCell>
        <mxCell id="bZxxxiBaWoAHhsd1G-LK-53" value="6: retour null" style="html=1;verticalAlign=bottom;endArrow=open;dashed=1;endSize=8;edgeStyle=elbowEdgeStyle;elbow=vertical;curved=0;rounded=0;" edge="1" parent="1" source="bZxxxiBaWoAHhsd1G-LK-9" target="bZxxxiBaWoAHhsd1G-LK-7">
          <mxGeometry relative="1" as="geometry">
            <mxPoint x="569" y="280" as="sourcePoint" />
            <mxPoint x="489" y="280" as="targetPoint" />
            <Array as="points">
              <mxPoint x="489" y="290" />
              <mxPoint x="509" y="280" />
            </Array>
          </mxGeometry>
        </mxCell>
        <mxCell id="bZxxxiBaWoAHhsd1G-LK-54" value="7: retour null" style="html=1;verticalAlign=bottom;endArrow=open;dashed=1;endSize=8;edgeStyle=elbowEdgeStyle;elbow=vertical;curved=0;rounded=0;" edge="1" parent="1">
          <mxGeometry relative="1" as="geometry">
            <mxPoint x="444" y="299.67" as="sourcePoint" />
            <mxPoint x="294" y="299.67" as="targetPoint" />
            <Array as="points">
              <mxPoint x="329" y="299.67" />
              <mxPoint x="349" y="289.67" />
            </Array>
          </mxGeometry>
        </mxCell>
        <mxCell id="bZxxxiBaWoAHhsd1G-LK-55" value="" style="html=1;verticalAlign=bottom;endArrow=open;dashed=1;endSize=8;edgeStyle=elbowEdgeStyle;elbow=vertical;curved=0;rounded=1;" edge="1" parent="1" source="bZxxxiBaWoAHhsd1G-LK-3" target="bZxxxiBaWoAHhsd1G-LK-57">
          <mxGeometry relative="1" as="geometry">
            <mxPoint x="284" y="310" as="sourcePoint" />
            <mxPoint x="149" y="310" as="targetPoint" />
            <Array as="points">
              <mxPoint x="199" y="310" />
              <mxPoint x="259" y="320" />
            </Array>
          </mxGeometry>
        </mxCell>
        <mxCell id="bZxxxiBaWoAHhsd1G-LK-56" value="8: Message d&#39;erreur :&lt;br&gt;pseudo non dispo." style="edgeLabel;html=1;align=center;verticalAlign=middle;resizable=0;points=[];" vertex="1" connectable="0" parent="bZxxxiBaWoAHhsd1G-LK-55">
          <mxGeometry x="0.1063" relative="1" as="geometry">
            <mxPoint x="5" y="-20" as="offset" />
          </mxGeometry>
        </mxCell>
        <mxCell id="bZxxxiBaWoAHhsd1G-LK-57" value="" style="ellipse;html=1;shape=endState;fillColor=#000000;strokeColor=#ff0000;rounded=1;" vertex="1" parent="1">
          <mxGeometry x="119" y="300" width="20" height="20" as="geometry" />
        </mxCell>
        <mxCell id="bZxxxiBaWoAHhsd1G-LK-59" value="9: retour positif" style="html=1;verticalAlign=bottom;endArrow=open;dashed=1;endSize=8;edgeStyle=elbowEdgeStyle;elbow=vertical;curved=0;rounded=0;" edge="1" parent="1">
          <mxGeometry relative="1" as="geometry">
            <mxPoint x="604" y="360" as="sourcePoint" />
            <mxPoint x="454" y="360" as="targetPoint" />
            <Array as="points">
              <mxPoint x="489" y="360" />
              <mxPoint x="509" y="350" />
            </Array>
          </mxGeometry>
        </mxCell>
        <mxCell id="bZxxxiBaWoAHhsd1G-LK-60" value="10: retour positif" style="html=1;verticalAlign=bottom;endArrow=open;dashed=1;endSize=8;edgeStyle=elbowEdgeStyle;elbow=vertical;curved=0;rounded=0;" edge="1" parent="1" target="bZxxxiBaWoAHhsd1G-LK-62">
          <mxGeometry relative="1" as="geometry">
            <mxPoint x="444" y="369.67" as="sourcePoint" />
            <mxPoint x="294" y="369.67" as="targetPoint" />
            <Array as="points">
              <mxPoint x="329" y="369.67" />
              <mxPoint x="349" y="359.67" />
            </Array>
          </mxGeometry>
        </mxCell>
        <mxCell id="bZxxxiBaWoAHhsd1G-LK-61" value="11: message : &lt;br&gt;pseudo disponible" style="html=1;verticalAlign=bottom;endArrow=open;dashed=1;endSize=8;edgeStyle=elbowEdgeStyle;elbow=vertical;curved=0;rounded=0;" edge="1" parent="1" source="bZxxxiBaWoAHhsd1G-LK-3" target="bZxxxiBaWoAHhsd1G-LK-1">
          <mxGeometry relative="1" as="geometry">
            <mxPoint x="249" y="380" as="sourcePoint" />
            <mxPoint x="169" y="380" as="targetPoint" />
            <Array as="points">
              <mxPoint x="259" y="370" />
              <mxPoint x="269" y="380" />
              <mxPoint x="229" y="390" />
              <mxPoint x="159" y="330" />
              <mxPoint x="169" y="390" />
              <mxPoint x="179" y="390" />
            </Array>
          </mxGeometry>
        </mxCell>
        <mxCell id="bZxxxiBaWoAHhsd1G-LK-62" value="" style="html=1;points=[];perimeter=orthogonalPerimeter;outlineConnect=0;targetShapes=umlLifeline;portConstraint=eastwest;newEdgeStyle={&quot;edgeStyle&quot;:&quot;elbowEdgeStyle&quot;,&quot;elbow&quot;:&quot;vertical&quot;,&quot;curved&quot;:0,&quot;rounded&quot;:0};fillColor=#99FFFF;rounded=1;" vertex="1" parent="1">
          <mxGeometry x="294" y="360" width="10" height="100" as="geometry" />
        </mxCell>
        <mxCell id="bZxxxiBaWoAHhsd1G-LK-63" value="12: envoi du formulaire" style="html=1;verticalAlign=bottom;startArrow=oval;startFill=1;endArrow=block;startSize=8;edgeStyle=elbowEdgeStyle;elbow=vertical;curved=0;rounded=0;" edge="1" parent="1" source="bZxxxiBaWoAHhsd1G-LK-62" target="bZxxxiBaWoAHhsd1G-LK-7">
          <mxGeometry width="60" relative="1" as="geometry">
            <mxPoint x="309" y="430" as="sourcePoint" />
            <mxPoint x="369" y="420" as="targetPoint" />
            <Array as="points">
              <mxPoint x="339" y="430" />
            </Array>
            <mxPoint as="offset" />
          </mxGeometry>
        </mxCell>
        <mxCell id="bZxxxiBaWoAHhsd1G-LK-66" value="14: envoi d&#39;un email avec un lien vers le front et token en url" style="html=1;verticalAlign=bottom;endArrow=open;dashed=1;endSize=8;edgeStyle=elbowEdgeStyle;elbow=vertical;curved=0;rounded=0;entryX=1;entryY=0.5;entryDx=0;entryDy=0;" edge="1" parent="1" source="bZxxxiBaWoAHhsd1G-LK-7" target="bZxxxiBaWoAHhsd1G-LK-68">
          <mxGeometry relative="1" as="geometry">
            <mxPoint x="409" y="490" as="sourcePoint" />
            <mxPoint x="329" y="490" as="targetPoint" />
          </mxGeometry>
        </mxCell>
        <mxCell id="bZxxxiBaWoAHhsd1G-LK-68" value="" style="ellipse;html=1;shape=endState;fillColor=#000000;strokeColor=#ff0000;rounded=1;" vertex="1" parent="1">
          <mxGeometry x="119" y="480" width="20" height="20" as="geometry" />
        </mxCell>
      </root>
    </mxGraphModel>
  </diagram>
</mxfile>
